Coordinates
version=1
nRows=21
nColumns=33
inDegrees=yes

Units are S.I. units (second, meters, Newtons, ...)
Angles are in degrees.

endheader
time	ground_thorax_rot_x	ground_thorax_rot_y	ground_thorax_rot_z	ground_thorax_tx	ground_thorax_ty	ground_thorax_tz	clav_prot_r	clav_elev_r	scapula_abduction_r	scapula_elevation_r	scapula_upward_rot_r	scapula_winging_r	shoulder_elv_r	plane_of_elev_r	axial_rot_r	elbow_flexion_r	pro_sup_r	wrist_flex_r	wrist_dev_r	clav_prot_l	clav_elev_l	scapula_abduction_l	scapula_elevation_l	scapula_upward_rot_l	scapula_winging_l	shoulder_elv_l	plane_of_elev_l	axial_rot_l	elbow_flexion_l	pro_sup_l	wrist_flex_l	wrist_dev_l	
0.0700	-1.113209	6.562560	-8.589122	-0.084821	1.016103	0.002714	-8.157566	-17.453512	-10.859433	-8.311913	-2.760123	7.447820	34.127674	0.429768	7.924966	75.761636	24.125412	20.865100	-8.860635	7.434512	-9.866365	-14.303123	-1.347339	-10.678223	2.045847	41.011656	9.392463	-2.047446	80.630179	15.452859	-14.515273	-21.245342	
0.0800	-1.113359	6.563845	-8.570574	-0.084881	1.016184	0.002763	-8.156310	-17.450478	-10.851142	-8.314943	-2.744616	7.443678	34.145738	0.423259	7.929333	75.809310	24.112943	20.863711	-8.836032	7.435369	-9.864533	-14.310982	-1.339484	-10.655404	2.050814	41.022413	9.395251	-2.044681	80.671850	15.457260	-14.496915	-21.250133	
0.0900	-1.112976	6.566767	-8.564933	-0.084879	1.016274	0.002803	-8.151853	-17.445328	-10.835780	-8.317014	-2.725829	7.436595	34.171467	0.405858	7.940250	75.886772	24.091054	20.858660	-8.792315	7.439323	-9.860608	-14.324657	-1.332835	-10.630660	2.058891	41.033042	9.388896	-2.044277	80.736768	15.465860	-14.464053	-21.257309	
0.1000	-1.111687	6.571379	-8.561681	-0.084878	1.016333	0.002835	-8.144258	-17.439184	-10.812164	-8.320476	-2.700294	7.426876	34.207978	0.377054	7.953534	75.999200	24.055173	20.846030	-8.722701	7.446113	-9.855707	-14.345845	-1.323243	-10.596938	2.071021	41.045352	9.375314	-2.042774	80.828849	15.479861	-14.411214	-21.266188	
0.1100	-1.107746	6.578151	-8.562151	-0.084870	1.016375	0.002857	-8.131064	-17.435150	-10.775633	-8.328468	-2.667327	7.415517	34.257901	0.328253	7.960887	76.155208	23.991660	20.811213	-8.606145	7.458379	-9.852166	-14.379914	-1.307638	-10.551612	2.088741	41.054769	9.346477	-2.035908	80.950415	15.503938	-14.321141	-21.273405	
0.1200	-1.100056	6.586515	-8.562785	-0.084865	1.016433	0.002872	-8.111736	-17.437602	-10.726558	-8.343901	-2.630413	7.405509	34.316894	0.257619	7.950512	76.341164	23.894162	20.742544	-8.436110	7.476702	-9.853576	-14.427765	-1.283184	-10.495557	2.111285	41.055677	9.299951	-2.018241	81.086321	15.539713	-14.187584	-21.273877	
0.1300	-1.082905	6.600148	-8.566355	-0.084852	1.016497	0.002877	-8.073599	-17.457082	-10.639949	-8.378856	-2.582903	7.398364	34.402724	0.122027	7.895901	76.615793	23.701528	20.580707	-8.112900	7.512484	-9.868715	-14.515851	-1.232791	-10.406315	2.147809	41.035093	9.204011	-1.970437	81.269424	15.608409	-13.930678	-21.256827	
0.1400	-1.058440	6.616928	-8.570429	-0.084834	1.016591	0.002878	-8.021710	-17.491754	-10.527215	-8.429452	-2.531128	7.395404	34.503380	-0.061820	7.800313	76.946154	23.435557	20.343514	-7.675854	7.560985	-9.895948	-14.632892	-1.162352	-10.294578	2.193760	40.993783	9.071253	-1.896562	81.476051	15.702135	-13.580770	-21.223429	
0.1500	-1.028684	6.635873	-8.572928	-0.084827	1.016688	0.002874	-7.960199	-17.536956	-10.395639	-8.491419	-2.474969	7.395169	34.615591	-0.281356	7.673553	77.325665	23.113972	20.051156	-7.154362	7.618455	-9.931293	-14.770997	-1.077158	-10.164650	2.246794	40.937032	8.912629	-1.802594	81.705427	15.814864	-13.161107	-21.178509	
0.1600	-1.001333	6.651588	-8.576851	-0.084807	1.016776	0.002872	-7.906753	-17.574440	-10.280314	-8.544400	-2.423851	7.393450	34.714943	-0.481474	7.555412	77.695656	22.818799	19.788821	-6.685786	7.668587	-9.958969	-14.892693	-1.003934	-10.047038	2.295062	40.881692	8.772783	-1.715461	81.929189	15.918488	-12.780226	-21.139523	
0.1700	-0.976950	6.665137	-8.586105	-0.084761	1.016833	0.002870	-7.862690	-17.599886	-10.182965	-8.584910	-2.376179	7.387892	34.804167	-0.660364	7.455521	78.065483	22.557820	19.569043	-6.279821	7.710216	-9.976127	-14.995535	-0.945513	-9.942731	2.338183	40.831667	8.655180	-1.639788	82.159349	16.010797	-12.446484	-21.111066	
0.1800	-0.961353	6.672965	-8.595686	-0.084710	1.016857	0.002868	-7.841990	-17.602358	-10.131136	-8.600362	-2.338940	7.377135	34.865247	-0.774223	7.398138	78.373721	22.393966	19.452995	-6.039951	7.731000	-9.974727	-15.051352	-0.918688	-9.874649	2.366173	40.799283	8.593845	-1.594149	82.361464	16.069898	-12.242328	-21.103820	
0.1900	-0.950876	6.679063	-8.605289	-0.084650	1.016843	0.002862	-7.842743	-17.584790	-10.121113	-8.593842	-2.311283	7.362516	34.904083	-0.837051	7.370834	78.639820	22.310592	19.426480	-5.939334	7.733313	-9.959397	-15.065494	-0.917482	-9.838508	2.379504	40.777062	8.581069	-1.571159	82.547859	16.101726	-12.145251	-21.114759	
0.2000	-0.944730	6.684222	-8.614506	-0.084581	1.016800	0.002851	-7.861890	-17.550504	-10.147171	-8.568737	-2.292222	7.344822	34.924608	-0.858860	7.366398	78.871515	22.293955	19.474898	-5.954406	7.719942	-9.933492	-15.044411	-0.936947	-9.829282	2.380295	40.762173	8.608861	-1.566491	82.720330	16.111338	-12.136762	-21.140317	
0.2100	-0.935463	6.696768	-8.626915	-0.084477	1.016740	0.002828	-7.885199	-17.512745	-10.182407	-8.538907	-2.277432	7.327056	34.946259	-0.892503	7.350598	79.135100	22.274591	19.532068	-5.970599	7.703733	-9.910145	-15.017382	-0.955644	-9.823870	2.377375	40.735838	8.640065	-1.558018	82.911687	16.124563	-12.123968	-21.166517	
0.2200	-0.925607	6.713520	-8.636777	-0.084377	1.016687	0.002799	-7.910567	-17.475836	-10.222702	-8.508707	-2.266022	7.310798	34.967630	-0.931981	7.324516	79.405174	22.253292	19.591163	-5.984898	7.686232	-9.891157	-14.987856	-0.971188	-9.820054	2.372082	40.703605	8.671748	-1.546740	83.100835	16.140683	-12.107969	-21.190320	
0.2300	-0.913890	6.734327	-8.648555	-0.084251	1.016630	0.002770	-7.939099	-17.438652	-10.270545	-8.476535	-2.259624	7.296239	34.986811	-0.979295	7.285797	79.700862	22.226629	19.654377	-5.995122	7.666321	-9.874165	-14.953727	-0.985609	-9.818017	2.363874	40.664702	8.703093	-1.529955	83.298896	16.161422	-12.088271	-21.212764	
0.2400	-0.903539	6.751794	-8.658306	-0.084144	1.016586	0.002751	-7.967753	-17.405244	-10.319251	-8.447266	-2.255182	7.284185	35.002493	-1.024124	7.240830	79.991350	22.196039	19.712761	-5.998716	7.646369	-9.858529	-14.919950	-0.998359	-9.814903	2.355596	40.628666	8.730503	-1.509682	83.486002	16.183877	-12.068609	-21.232198	
0.2500	-0.892490	6.764878	-8.670796	-0.084030	1.016541	0.002746	-7.997580	-17.374673	-10.371123	-8.419570	-2.254094	7.274748	35.013206	-1.067437	7.187950	80.289823	22.159371	19.767922	-5.994857	7.625589	-9.842412	-14.884599	-1.011674	-9.812368	2.346651	40.594087	8.753249	-1.483279	83.672932	16.208263	-12.049817	-21.249963	
0.2600	-0.884131	6.769799	-8.679785	-0.083962	1.016516	0.002755	-8.025195	-17.351223	-10.418984	-8.398515	-2.253300	7.268873	35.019501	-1.099747	7.133900	80.554902	22.120874	19.811087	-5.983740	7.606768	-9.828510	-14.852773	-1.022909	-9.809462	2.338553	40.566883	8.770849	-1.453938	83.839596	16.229863	-12.035925	-21.264526	
0.2700	-0.876168	6.769931	-8.692353	-0.083894	1.016485	0.002772	-8.051721	-17.330916	-10.465401	-8.379922	-2.253882	7.264920	35.022595	-1.127466	7.079228	80.810500	22.078777	19.847607	-5.966871	7.588787	-9.814510	-14.821762	-1.034940	-9.808308	2.330454	40.542037	8.785632	-1.421770	84.007278	16.249344	-12.025084	-21.278523	
